# xmcd
#
# Track frame offsets:
#	150
#	18000
#	34200
#	58500
#	72525
#	95475
#	112725
#	133050
#	149550
#	163125
#	189015
#
# Disc length: 2704 seconds
#
# Revision: 2
# Processed by: cddbd v1.5.1PL0 Copyright (c) Steve Scherf et al.
# Submitted via: audiograbber 1.83.01
#
DISCID=940a8e0b
DTITLE=Wiley Reed - Straight from the Heart
DYEAR=2003
DGENRE=Blues
TTITLE0=Muddy Waters
TTITLE1=Boom Boom Boom
TTITLE2=You Don't Know Me
TTITLE3=Everyday I Have the Blues
TTITLE4=Georgia
TTITLE5=Dock of the Bay
TTITLE6=Amazing Grace
TTITLE7=Tobacco Road
TTITLE8=What a Wonderful World
TTITLE9=I Got My Mojo Working
TTITLE10=I Put A Spell on You
EXTD=
EXTT0=
EXTT1=
EXTT2=
EXTT3=
EXTT4=
EXTT5=
EXTT6=
EXTT7=
EXTT8=
EXTT9=
EXTT10=
PLAYORDER=
